<mxfile host="app.diagrams.net" modified="2021-03-10T08:35:11.722Z" agent="5.0 (Windows NT 10.0; Win64; x64) AppleWebKit/537.36 (KHTML, like Gecko) Chrome/88.0.4324.190 Safari/537.36" etag="4ovRIJpm8_7lgNnMSKOx" version="13.8.7" type="github">
  <diagram id="YLdbimebuqc_mkRYvjxy" name="Page-1">
    <mxGraphModel dx="1140" dy="659" grid="1" gridSize="10" guides="1" tooltips="1" connect="1" arrows="1" fold="1" page="1" pageScale="1" pageWidth="827" pageHeight="1169" math="0" shadow="0">
      <root>
        <mxCell id="0" />
        <mxCell id="1" parent="0" />
        <mxCell id="Kkjjsd-a7CD4oFcNMelb-1" value="&lt;b&gt;网络状态&lt;/b&gt;" style="rounded=0;whiteSpace=wrap;html=1;fillColor=#ffcc99;strokeColor=#36393d;" vertex="1" parent="1">
          <mxGeometry x="255" y="330" width="115" height="45" as="geometry" />
        </mxCell>
        <mxCell id="Kkjjsd-a7CD4oFcNMelb-2" value="&lt;b&gt;Git分布式管理&lt;/b&gt;" style="rounded=0;whiteSpace=wrap;html=1;fillColor=#f9f7ed;strokeColor=#36393d;" vertex="1" parent="1">
          <mxGeometry x="255" y="240" width="115" height="45" as="geometry" />
        </mxCell>
        <mxCell id="Kkjjsd-a7CD4oFcNMelb-3" value="&lt;b&gt;多分支管理模型&lt;/b&gt;" style="rounded=0;whiteSpace=wrap;html=1;fillColor=#eeeeee;strokeColor=#36393d;" vertex="1" parent="1">
          <mxGeometry x="255" y="150" width="115" height="45" as="geometry" />
        </mxCell>
        <mxCell id="Kkjjsd-a7CD4oFcNMelb-4" value="&lt;b&gt;规划引擎&lt;/b&gt;" style="rounded=0;whiteSpace=wrap;html=1;fillColor=#ffff88;strokeColor=#36393d;" vertex="1" parent="1">
          <mxGeometry x="610" y="330" width="115" height="45" as="geometry" />
        </mxCell>
        <mxCell id="Kkjjsd-a7CD4oFcNMelb-21" value="" style="edgeStyle=orthogonalEdgeStyle;rounded=0;orthogonalLoop=1;jettySize=auto;html=1;" edge="1" parent="1" source="Kkjjsd-a7CD4oFcNMelb-5" target="Kkjjsd-a7CD4oFcNMelb-1">
          <mxGeometry relative="1" as="geometry" />
        </mxCell>
        <mxCell id="Kkjjsd-a7CD4oFcNMelb-5" value="&lt;b&gt;调整策略&lt;/b&gt;" style="rounded=0;whiteSpace=wrap;html=1;fillColor=#cce5ff;strokeColor=#36393d;" vertex="1" parent="1">
          <mxGeometry x="420" y="330" width="115" height="45" as="geometry" />
        </mxCell>
        <mxCell id="Kkjjsd-a7CD4oFcNMelb-18" value="" style="shape=flexArrow;endArrow=classic;html=1;fillColor=#ffcccc;strokeColor=#36393d;" edge="1" parent="1">
          <mxGeometry width="50" height="50" relative="1" as="geometry">
            <mxPoint x="313" y="200" as="sourcePoint" />
            <mxPoint x="313" y="234" as="targetPoint" />
          </mxGeometry>
        </mxCell>
        <mxCell id="Kkjjsd-a7CD4oFcNMelb-19" value="" style="shape=flexArrow;endArrow=classic;html=1;fillColor=#ffcccc;strokeColor=#36393d;" edge="1" parent="1">
          <mxGeometry width="50" height="50" relative="1" as="geometry">
            <mxPoint x="312" y="290" as="sourcePoint" />
            <mxPoint x="312" y="324" as="targetPoint" />
          </mxGeometry>
        </mxCell>
        <mxCell id="Kkjjsd-a7CD4oFcNMelb-20" value="" style="shape=flexArrow;endArrow=classic;html=1;fillColor=#ffcccc;strokeColor=#36393d;" edge="1" parent="1">
          <mxGeometry width="50" height="50" relative="1" as="geometry">
            <mxPoint x="377" y="352" as="sourcePoint" />
            <mxPoint x="414" y="352" as="targetPoint" />
          </mxGeometry>
        </mxCell>
      </root>
    </mxGraphModel>
  </diagram>
</mxfile>
